<svg width="209" height="54" viewBox="0 0 209 54" fill="none" xmlns="http://www.w3.org/2000/svg">
<mask id="mask0_4_2" style="mask-type:luminance" maskUnits="userSpaceOnUse" x="9" y="6" width="56" height="42">
<path d="M65 6H9V48H65V6Z" fill="white"/>
</mask>
<g mask="url(#mask0_4_2)">
<path d="M65.0005 32.9855C65.0005 35.6086 64.3226 38.1859 63.0346 40.4607C61.7466 42.7354 59.8933 44.6284 57.6595 45.951C55.4255 47.2738 52.8888 47.9799 50.302 47.9992C47.7151 48.0186 45.1684 47.3506 42.9155 46.0614C41.4009 47.1899 39.5994 47.8552 37.724 47.9788C35.8485 48.1025 33.9772 47.6792 32.3313 46.7593C30.2895 47.5846 28.1106 48.0057 25.9126 47.9999C16.5871 47.9999 9.00067 40.539 9.00067 31.3677C9.00067 22.1965 16.5871 14.7356 25.9126 14.7356H25.9165C27.7624 11.6126 30.5 9.13143 33.7669 7.62031C37.0339 6.10919 40.6761 5.63935 44.2122 6.27294C47.7483 6.90653 51.0112 8.61369 53.5696 11.1686C56.1277 13.7235 57.8609 17.0057 58.5394 20.581C60.5379 21.9521 62.1726 23.8009 63.2992 25.9643C64.426 28.1277 65.0104 30.5391 65.0005 32.9855ZM42.7656 42.2131C43.1098 42.2129 43.446 42.3191 43.7292 42.5174C44.9865 43.3933 46.4045 44.0048 47.899 44.3156C49.3936 44.6263 50.9343 44.6299 52.4303 44.3263C53.926 44.0224 55.3467 43.4177 56.6082 42.5476C57.8696 41.6775 58.9461 40.5598 59.7739 39.2603C60.6017 37.9611 61.1641 36.5065 61.4281 34.9829C61.6919 33.4593 61.6514 31.8974 61.3097 30.39C60.9677 28.8824 60.3311 27.4597 59.4375 26.2059C58.5438 24.9522 57.4111 23.8929 56.1068 23.0908C55.8928 22.959 55.7103 22.781 55.5722 22.5693C55.434 22.3577 55.3436 22.1178 55.3076 21.8666C54.8669 18.8247 53.4862 16.0027 51.3642 13.8066C49.242 11.6105 46.4877 10.1532 43.4974 9.64444C40.5069 9.13564 37.4345 9.6015 34.7215 10.975C32.0086 12.3485 29.7954 14.5589 28.3996 17.2885C28.2486 17.5849 28.0157 17.8303 27.7294 17.9946C27.443 18.159 27.1156 18.2351 26.7873 18.2136C26.4513 18.1926 26.1728 18.1825 25.9111 18.1825C18.4595 18.1825 12.397 24.098 12.397 31.3686C12.397 38.6392 18.4603 44.5544 25.9111 44.5544C27.9294 44.5609 29.9246 44.119 31.7563 43.2598C32.0242 43.1343 32.3197 43.0815 32.6137 43.1067C32.9078 43.1322 33.1902 43.2348 33.4333 43.4045C34.6617 44.2611 36.1451 44.6591 37.6307 44.5309C39.1161 44.4026 40.5117 43.756 41.5796 42.7011C41.8971 42.3878 42.3226 42.2127 42.7656 42.2131Z" fill="#FF3400"/>
<path d="M28.1181 25.2762H25.5926C25.4921 25.2762 25.3957 25.3167 25.3246 25.3888C25.2536 25.4608 25.2137 25.5585 25.2137 25.6604V31.6785H25.2201L28.4966 28.3562V25.6606C28.4966 25.5588 28.4568 25.4611 28.3858 25.389C28.3148 25.3169 28.2186 25.2764 28.1181 25.2762Z" fill="#2584FF"/>
<path d="M38.462 22.4692C38.0779 22.0797 37.5568 21.8609 37.0137 21.8609C36.4704 21.8609 35.9495 22.0797 35.5654 22.4692L29.1355 28.9889L28.497 29.6366L25.2205 32.9588L17.7112 40.573C19.7166 42.0598 22.0772 42.9765 24.5491 43.228C27.0209 43.4797 29.5142 43.0573 31.771 42.0043C32.0389 41.8789 32.3342 41.8264 32.6282 41.8516C32.9221 41.877 33.2045 41.9797 33.4476 42.1491C34.6758 43.0058 36.1593 43.4038 37.6447 43.2755C39.1301 43.1473 40.5257 42.5005 41.5935 41.4456C41.8755 41.1678 42.2438 40.9975 42.6355 40.9641C43.0275 40.9306 43.4186 41.0358 43.7425 41.2618C45.676 42.6121 47.9741 43.3237 50.3217 43.2985C52.6694 43.2732 54.9521 42.5129 56.857 41.1213L38.462 22.4692ZM36.8621 38.1482C36.8621 38.2262 36.8314 38.301 36.7771 38.3563C36.7226 38.4114 36.6487 38.4425 36.5718 38.4425H34.2125C34.1356 38.4425 34.0618 38.4114 34.0072 38.3563C33.9527 38.301 33.9222 38.2262 33.9222 38.1482V35.756C33.9222 35.678 33.9527 35.6031 34.0072 35.5478C34.0618 35.4927 34.1356 35.4616 34.2125 35.4616H36.5718C36.6487 35.4616 36.7226 35.4927 36.7771 35.5478C36.8314 35.6031 36.8621 35.678 36.8621 35.756V38.1482ZM36.8621 34.5253C36.8621 34.6033 36.8314 34.6781 36.7771 34.7334C36.7226 34.7887 36.6487 34.8196 36.5718 34.8196H34.2125C34.1356 34.8196 34.0618 34.7887 34.0072 34.7334C33.9527 34.6781 33.9222 34.6033 33.9222 34.5253V32.1331C33.9222 32.0551 33.9527 31.9802 34.0072 31.9249C34.0618 31.8698 34.1356 31.8387 34.2125 31.8387H36.5718C36.6487 31.8387 36.7226 31.8698 36.7771 31.9249C36.8314 31.9802 36.8621 32.0551 36.8621 32.1331V34.5253ZM40.646 38.1482C40.646 38.2262 40.6153 38.301 40.561 38.3563C40.5064 38.4114 40.4326 38.4425 40.3557 38.4425H37.9964C37.9195 38.4425 37.8457 38.4114 37.7911 38.3563C37.7366 38.301 37.7061 38.2262 37.7061 38.1482V35.756C37.7061 35.678 37.7366 35.6031 37.7911 35.5478C37.8457 35.4927 37.9195 35.4616 37.9964 35.4616H40.3557C40.4326 35.4616 40.5064 35.4927 40.561 35.5478C40.6153 35.6031 40.646 35.678 40.646 35.756V38.1482ZM40.646 34.5253C40.646 34.6033 40.6153 34.6781 40.561 34.7334C40.5064 34.7887 40.4326 34.8196 40.3557 34.8196H37.9964C37.9195 34.8196 37.8457 34.7887 37.7911 34.7334C37.7366 34.6781 37.7061 34.6033 37.7061 34.5253V32.1331C37.7061 32.0551 37.7366 31.9802 37.7911 31.9249C37.8457 31.8698 37.9195 31.8387 37.9964 31.8387H40.3557C40.4326 31.8387 40.5064 31.8698 40.561 31.9249C40.6153 31.9802 40.646 32.0551 40.646 32.1331V34.5253Z" fill="#2584FF"/>
</g>
<path d="M77.793 24.6875H80.1367V31.1328H87.8477V24.6875H90.1914V41H87.8477V33.1953H80.1367V41H77.793V24.6875ZM93.0273 34.9297C93.0273 33.0312 93.6328 31.4922 94.8438 30.3125C95.9766 29.2109 97.3789 28.6602 99.0508 28.6602C100.691 28.6602 102.062 29.2109 103.164 30.3125C104.336 31.4844 104.922 33.0234 104.922 34.9297C104.922 36.8281 104.332 38.3594 103.152 39.5234C102.035 40.6328 100.664 41.1875 99.0391 41.1875C97.3906 41.1875 95.9922 40.6328 94.8438 39.5234C93.6328 38.3594 93.0273 36.8281 93.0273 34.9297ZM95.4648 34.9297C95.4648 36.9297 96.1055 38.2891 97.3867 39.0078C97.8398 39.2578 98.3828 39.3828 99.0156 39.3828C99.6484 39.3828 100.184 39.2578 100.621 39.0078C101.059 38.75 101.418 38.4141 101.699 38C102.223 37.2031 102.484 36.1797 102.484 34.9297C102.484 32.9453 101.855 31.5859 100.598 30.8516C100.16 30.5938 99.6367 30.4648 99.0273 30.4648C98.418 30.4648 97.8867 30.5938 97.4336 30.8516C96.9883 31.1016 96.6211 31.4336 96.332 31.8477C95.7539 32.6602 95.4648 33.6875 95.4648 34.9297ZM110.77 41.1875C109.793 41.1875 108.805 41.1172 107.805 40.9766V38.9023C108.82 39.1445 109.852 39.2656 110.898 39.2656C112.992 39.2656 114.039 38.8242 114.039 37.9414C114.039 37.6055 113.957 37.3555 113.793 37.1914C113.551 36.9336 113.168 36.6758 112.645 36.418L110.934 35.6328C109.824 35.0781 109.105 34.6328 108.777 34.2969C108.16 33.6719 107.852 32.9297 107.852 32.0703C107.852 31.1016 108.301 30.3125 109.199 29.7031C110.168 29.0469 111.527 28.7188 113.277 28.7188C114.16 28.7188 115.051 28.7812 115.949 28.9062V30.9102C114.965 30.7305 114.105 30.6406 113.371 30.6406C112.645 30.6406 112.078 30.6875 111.672 30.7812C111.273 30.875 110.973 30.9922 110.77 31.1328C110.449 31.3516 110.289 31.6367 110.289 31.9883C110.289 32.332 110.398 32.6133 110.617 32.832C110.844 33.043 111.195 33.2734 111.672 33.5234L113.395 34.3555C114.52 34.9414 115.242 35.3906 115.562 35.7031C116.172 36.2969 116.477 37.043 116.477 37.9414C116.477 38.9023 115.992 39.6758 115.023 40.2617C114.008 40.8789 112.59 41.1875 110.77 41.1875ZM124.152 39.1484C124.41 39.2422 124.801 39.2891 125.324 39.2891C125.848 39.2891 126.285 39.2266 126.637 39.1016V40.9766C126.473 41.0156 126.234 41.0391 125.922 41.0469L125.184 41.0703C125.02 41.0703 124.895 41.0703 124.809 41.0703C123.301 41.0703 122.188 40.5781 121.469 39.5938C120.891 38.7969 120.602 37.7422 120.602 36.4297V30.6992H118.867V29.5977L120.602 28.9062L121.164 25.9062H122.945V28.9062H126.695V30.6992H122.945V36.418C122.945 37.9492 123.348 38.8594 124.152 39.1484ZM129.789 24.6875H131.477L139.996 36.7227L139.867 35.0352V24.6875H142.188V41H140.512L133.398 31.0039L131.98 28.9648L132.109 31.0039V41H129.789V24.6875ZM145.035 34.9297C145.035 33.0312 145.641 31.4922 146.852 30.3125C147.984 29.2109 149.387 28.6602 151.059 28.6602C152.699 28.6602 154.07 29.2109 155.172 30.3125C156.344 31.4844 156.93 33.0234 156.93 34.9297C156.93 36.8281 156.34 38.3594 155.16 39.5234C154.043 40.6328 152.672 41.1875 151.047 41.1875C149.398 41.1875 148 40.6328 146.852 39.5234C145.641 38.3594 145.035 36.8281 145.035 34.9297ZM147.473 34.9297C147.473 36.9297 148.113 38.2891 149.395 39.0078C149.848 39.2578 150.391 39.3828 151.023 39.3828C151.656 39.3828 152.191 39.2578 152.629 39.0078C153.066 38.75 153.426 38.4141 153.707 38C154.23 37.2031 154.492 36.1797 154.492 34.9297C154.492 32.9453 153.863 31.5859 152.605 30.8516C152.168 30.5938 151.645 30.4648 151.035 30.4648C150.426 30.4648 149.895 30.5938 149.441 30.8516C148.996 31.1016 148.629 31.4336 148.34 31.8477C147.762 32.6602 147.473 33.6875 147.473 34.9297ZM158.184 28.9062H160.68L163.785 38.5156L166.926 28.9062H169.363L172.539 38.4805L175.492 28.9062H177.812L173.746 41H171.332L168.074 31.8359L164.992 41H162.578L158.184 28.9062Z" fill="white"/>
</svg>
